<svg width="82" height="42" viewBox="0 0 82 42" fill="none" xmlns="http://www.w3.org/2000/svg">
<path d="M2.12109 24.3076H4.44409V35.747H2.12109V24.3076Z" fill="#0A0C00"/>
<path d="M5.78925 31.8275C5.78772 31.0059 6.02892 30.2022 6.48234 29.5182C6.93576 28.8343 7.58101 28.3008 8.33644 27.9853C9.09182 27.6698 9.92347 27.5865 10.7261 27.7458C11.5287 27.9052 12.2662 28.3001 12.8452 28.8806C13.4243 29.461 13.8189 30.2009 13.979 31.0067C14.1393 31.8124 14.0578 32.6478 13.7451 33.4071C13.4323 34.1663 12.9024 34.8153 12.2222 35.272C11.5421 35.7287 10.7423 35.9724 9.9242 35.9724C9.38005 35.9787 8.84025 35.8758 8.33628 35.6698C7.83232 35.4638 7.37436 35.1588 6.98925 34.7728C6.60415 34.3868 6.29964 33.9274 6.09358 33.4216C5.88753 32.9159 5.78406 32.3739 5.78925 31.8275ZM11.7206 31.8275C11.7115 31.4728 11.5984 31.1287 11.3955 30.8382C11.1927 30.5477 10.909 30.3237 10.58 30.1943C10.2511 30.0648 9.89141 30.0357 9.5461 30.1105C9.20072 30.1853 8.88502 30.3607 8.63836 30.6148C8.39179 30.8688 8.22525 31.1903 8.1596 31.539C8.09396 31.8876 8.13215 32.248 8.26936 32.5749C8.40663 32.9019 8.63681 33.181 8.9311 33.3772C9.22548 33.5735 9.57087 33.6782 9.9242 33.6783C10.1659 33.6851 10.4064 33.6416 10.6305 33.5503C10.8546 33.4591 11.0574 33.3222 11.2263 33.1483C11.395 32.9743 11.5262 32.7672 11.6112 32.5399C11.6963 32.3126 11.7335 32.07 11.7206 31.8275Z" fill="#0A0C00"/>
<path d="M23.3965 27.9082V35.3581C23.3965 37.9944 21.3445 39.1065 19.2693 39.1065C18.5396 39.161 17.809 39.0128 17.1575 38.6781C16.506 38.3434 15.9588 37.8351 15.5758 37.209L17.5736 36.0503C17.7321 36.3712 17.9829 36.6369 18.2935 36.813C18.6041 36.989 18.9603 37.0674 19.3158 37.0379C19.5497 37.0771 19.7895 37.0618 20.0166 36.9931C20.2437 36.9245 20.4521 36.8044 20.6257 36.6421C20.7992 36.4798 20.9334 36.2796 21.0177 36.057C21.1021 35.8344 21.1344 35.5953 21.1122 35.3581V34.6349C20.8391 34.9724 20.4906 35.2404 20.0952 35.4174C19.6997 35.5944 19.2682 35.6754 18.8357 35.6537C17.7842 35.6537 16.7759 35.2342 16.0323 34.4875C15.2888 33.7408 14.8711 32.728 14.8711 31.672C14.8711 30.616 15.2888 29.6033 16.0323 28.8566C16.7759 28.1099 17.7842 27.6904 18.8357 27.6904C19.2679 27.6706 19.6988 27.7523 20.094 27.9292C20.4892 28.106 20.8379 28.3731 21.1122 28.7091V27.9315L23.3965 27.9082ZM21.1122 31.672C21.1277 31.2938 21.0301 30.9196 20.8322 30.5975C20.6341 30.2754 20.3448 30.0201 20.0012 29.8645C19.6576 29.7089 19.2755 29.66 18.904 29.7243C18.5326 29.7884 18.1887 29.9628 17.9167 30.2247C17.6447 30.4868 17.4569 30.8245 17.3775 31.1945C17.298 31.5645 17.3307 31.95 17.4711 32.3013C17.6116 32.6526 17.8534 32.9536 18.1656 33.1657C18.4778 33.378 18.846 33.4914 19.2228 33.4918C19.4689 33.5092 19.7158 33.4748 19.9477 33.3906C20.1797 33.3063 20.3915 33.1743 20.5695 33.0028C20.7475 32.8314 20.8878 32.6243 20.9812 32.3952C21.0747 32.166 21.1193 31.9196 21.1122 31.672Z" fill="#0A0C00"/>
<path d="M24.7385 31.8275C24.7369 31.0059 24.9782 30.2022 25.4315 29.5182C25.885 28.8343 26.5303 28.3008 27.2856 27.9853C28.041 27.6698 28.8727 27.5865 29.6753 27.7458C30.4779 27.9052 31.2154 28.3001 31.7945 28.8806C32.3735 29.461 32.7681 30.2009 32.9283 31.0067C33.0884 31.8124 33.007 32.6478 32.6943 33.4071C32.3815 34.1663 31.8516 34.8153 31.1715 35.272C30.4913 35.7287 29.6915 35.9724 28.8734 35.9724C28.3293 35.9787 27.7894 35.8758 27.2855 35.6698C26.7815 35.4638 26.3235 35.1588 25.9385 34.7728C25.5534 34.3868 25.2488 33.9274 25.0428 33.4216C24.8367 32.9159 24.7332 32.3739 24.7385 31.8275ZM30.6699 31.8275C30.6607 31.4728 30.5476 31.1287 30.3447 30.8382C30.1419 30.5477 29.8582 30.3237 29.5292 30.1943C29.2003 30.0648 28.8407 30.0357 28.4953 30.1105C28.1499 30.1853 27.8342 30.3607 27.5876 30.6148C27.341 30.8688 27.1744 31.1903 27.1088 31.539C27.0432 31.8876 27.0814 32.248 27.2186 32.5749C27.3558 32.9019 27.586 33.181 27.8803 33.3772C28.1747 33.5735 28.5201 33.6782 28.8734 33.6783C29.1138 33.6829 29.3526 33.6378 29.5749 33.5455C29.7971 33.4533 29.9981 33.3161 30.1652 33.1424C30.3323 32.9688 30.462 32.7624 30.5462 32.5361C30.6303 32.3099 30.6672 32.0686 30.6544 31.8275H30.6699Z" fill="#0A0C00"/>
<path d="M34.0859 25.8089C34.0859 25.529 34.1686 25.2553 34.3234 25.0226C34.4783 24.7899 34.6984 24.6084 34.9559 24.5013C35.2134 24.3941 35.4967 24.3661 35.7701 24.4207C36.0435 24.4753 36.2946 24.6102 36.4917 24.8081C36.6889 25.006 36.823 25.2582 36.8774 25.5328C36.9318 25.8073 36.9039 26.0919 36.7973 26.3505C36.6906 26.6091 36.5099 26.8302 36.2782 26.9857C36.0464 27.1412 35.774 27.2242 35.4952 27.2242C35.1221 27.2222 34.7648 27.0724 34.5009 26.8074C34.2371 26.5425 34.088 26.1837 34.0859 25.8089ZM34.3259 27.9086H36.6489V35.7474H34.3259V27.9086Z" fill="#0A0C00"/>
<path d="M46.7767 31.8276C46.8049 32.3458 46.7307 32.8644 46.5585 33.3537C46.3862 33.8429 46.1194 34.2932 45.7732 34.6784C45.427 35.0636 45.0084 35.3763 44.5414 35.5984C44.0744 35.8206 43.5683 35.9477 43.0522 35.9726C42.6189 35.9934 42.1863 35.9186 41.785 35.7534C41.3836 35.5881 41.0232 35.3364 40.7292 35.016V38.9043H38.4062V27.9082H40.7292V28.647C41.0232 28.3266 41.3836 28.0749 41.785 27.9096C42.1863 27.7444 42.6189 27.6696 43.0522 27.6904C43.5677 27.7153 44.0731 27.8422 44.5395 28.0638C45.006 28.2855 45.4243 28.5975 45.7703 28.9819C46.1165 29.3663 46.3835 29.8155 46.5561 30.3039C46.7289 30.7922 46.8039 31.3101 46.7767 31.8276ZM44.4538 31.8276C44.4446 31.4626 44.3289 31.1083 44.1212 30.8086C43.9135 30.509 43.6229 30.277 43.2853 30.1417C42.9477 30.0062 42.5779 29.9732 42.2219 30.0467C41.8657 30.1202 41.5389 30.297 41.2818 30.5552C41.0248 30.8133 40.8488 31.1415 40.7756 31.4992C40.7024 31.8568 40.7353 32.2282 40.8701 32.5672C41.005 32.9062 41.2359 33.1982 41.5343 33.4067C41.8327 33.6153 42.1855 33.7314 42.5489 33.7406C42.8025 33.7569 43.0566 33.7183 43.2943 33.6277C43.5318 33.5371 43.7473 33.3964 43.9263 33.2152C44.1052 33.034 44.2436 32.8164 44.3319 32.5771C44.4201 32.3378 44.4565 32.0822 44.4383 31.8276H44.4538Z" fill="#0A0C00"/>
<path d="M54.0074 33.3987C54.0074 35.2029 52.4587 35.9727 50.7552 35.9727C50.0746 36.0332 49.3917 35.8878 48.7941 35.5552C48.1967 35.2225 47.7119 34.718 47.4023 34.1063L49.4311 32.9476C49.5134 33.2305 49.6897 33.4766 49.9306 33.6449C50.1715 33.8132 50.4624 33.8938 50.7552 33.873C51.3205 33.873 51.5992 33.6941 51.5992 33.3831C51.5992 32.5199 47.7276 32.9787 47.7276 30.2725C47.7276 28.5616 49.1678 27.6984 50.8249 27.6984C51.4363 27.6797 52.0417 27.8256 52.5781 28.121C53.1145 28.4163 53.5625 28.8504 53.8758 29.3781L51.8393 30.4513C51.7493 30.246 51.6019 30.0712 51.4149 29.9483C51.228 29.8255 51.0096 29.7597 50.7862 29.7592C50.3835 29.7592 50.1357 29.9147 50.1357 30.2025C50.1667 31.0967 54.0074 30.498 54.0074 33.3987Z" fill="#0A0C00"/>
<path d="M62.5544 27.9082V35.7471H60.2313V35.0161C59.9611 35.3409 59.6182 35.5968 59.2306 35.7631C58.843 35.9294 58.4217 36.0011 58.0012 35.9726C56.4526 35.9726 55.082 34.845 55.082 32.722V27.9082H57.405V32.3798C57.3846 32.5704 57.4067 32.7631 57.4697 32.944C57.5327 33.1249 57.6349 33.2895 57.7692 33.4258C57.9033 33.5621 58.0661 33.6666 58.2455 33.7318C58.4249 33.7971 58.6166 33.8213 58.8066 33.8029C59.6584 33.8029 60.2546 33.3052 60.2546 32.1932V27.9082H62.5544Z" fill="#0A0C00"/>
<path d="M75.9818 30.9408V35.7468H73.6587V31.1431C73.6587 30.3654 73.2793 29.8521 72.536 29.8521C71.7927 29.8521 71.3126 30.4043 71.3126 31.3297V35.7468H68.9896V31.1431C68.9896 30.3654 68.6179 29.8521 67.8668 29.8521C67.1157 29.8521 66.6511 30.4043 66.6511 31.3297V35.7468H64.3281V27.908H66.6511V28.6312C66.8939 28.3118 67.2123 28.0584 67.5775 27.8941C67.9426 27.7297 68.3428 27.6596 68.7418 27.6903C69.1424 27.6707 69.5414 27.7557 69.8995 27.9369C70.2578 28.1182 70.5632 28.3895 70.786 28.7245C71.0452 28.3743 71.3885 28.0957 71.7839 27.9149C72.1793 27.734 72.6139 27.6567 73.047 27.6903C74.8126 27.6903 75.9818 28.9812 75.9818 30.9408Z" fill="#0A0C00"/>
<path d="M77.965 27.8619C78.9229 27.8619 79.6995 27.0819 79.6995 26.1199C79.6995 25.1578 78.9229 24.3779 77.965 24.3779C77.0071 24.3779 76.2305 25.1578 76.2305 26.1199C76.2305 27.0819 77.0071 27.8619 77.965 27.8619Z" fill="#0A0C00"/>
<path d="M28.4079 18.374C32.894 18.374 36.5306 14.7216 36.5306 10.2163C36.5306 5.71091 32.894 2.05859 28.4079 2.05859C23.9219 2.05859 20.2852 5.71091 20.2852 10.2163C20.2852 14.7216 23.9219 18.374 28.4079 18.374Z" fill="#0A0C00"/>
<path d="M46.5681 18.374C51.0541 18.374 54.6907 14.7216 54.6907 10.2163C54.6907 5.71091 51.0541 2.05859 46.5681 2.05859C42.082 2.05859 38.4453 5.71091 38.4453 10.2163C38.4453 14.7216 42.082 18.374 46.5681 18.374Z" fill="#0A0C00"/>
<path d="M18.3744 2.05859H2.13672V18.3661H18.3744V2.05859Z" fill="#0A0C00"/>
</svg>
