<svg width="78" height="30" viewBox="0 0 78 30" fill="none" xmlns="http://www.w3.org/2000/svg">
<g clipPath="url(#clip0_2068_1964)">
<path d="M18.5147 0C15.4686 0 12.5473 1.21005 10.3934 3.36396L3.36396 10.3934C1.21005 12.5473 0 15.4686 0 18.5147C0 24.8579 5.14214 30 11.4853 30C14.5314 30 17.4527 28.7899 19.6066 26.636L24.4689 21.7737C24.4689 21.7736 24.469 21.7738 24.4689 21.7737L38.636 7.6066C39.6647 6.57791 41.0599 6 42.5147 6C44.9503 6 47.0152 7.58741 47.7311 9.78407L52.2022 5.31296C50.1625 2.11834 46.586 0 42.5147 0C39.4686 0 36.5473 1.21005 34.3934 3.36396L15.364 22.3934C14.3353 23.4221 12.9401 24 11.4853 24C8.45584 24 6 21.5442 6 18.5147C6 17.0599 6.57791 15.6647 7.6066 14.636L14.636 7.6066C15.6647 6.57791 17.0599 6 18.5147 6C20.9504 6 23.0152 7.58748 23.7311 9.78421L28.2023 5.31307C26.1626 2.1184 22.5861 0 18.5147 0Z" fill="#0A0C00"/>
<path d="M39.3627 22.3934C38.334 23.4221 36.9388 24 35.484 24C33.0487 24 30.984 22.413 30.2679 20.2167L25.7969 24.6877C27.8367 27.8819 31.413 30 35.484 30C38.5301 30 41.4514 28.7899 43.6053 26.636L62.6347 7.6066C63.6634 6.57791 65.0586 6 66.5134 6C69.5429 6 71.9987 8.45584 71.9987 11.4853C71.9987 12.9401 71.4208 14.3353 70.3921 15.364L63.3627 22.3934C62.334 23.4221 60.9388 24 59.484 24C57.0485 24 54.9837 22.4127 54.2677 20.2162L49.7967 24.6873C51.8364 27.8818 55.4128 30 59.484 30C62.5301 30 65.4514 28.7899 67.6053 26.636L74.6347 19.6066C76.7886 17.4527 77.9987 14.5314 77.9987 11.4853C77.9987 5.14214 72.8566 0 66.5134 0C63.4673 0 60.546 1.21005 58.3921 3.36396L39.3627 22.3934Z" fill="#0A0C00"/>
</g>
<defs>
<clipPath id="clip0_2068_1964">
<rect width="78" height="30" fill="white"/>
</clipPath>
</defs>
</svg>
