<svg width="100" height="25" viewBox="0 0 100 25" fill="none" xmlns="http://www.w3.org/2000/svg">
<path d="M2.45312 23.1875H23.8281V1.8125H2.45312V23.1875ZM19.714 10.4433H15.1973V5.92667H19.714V10.4433ZM6.56646 5.92667H11.0856V14.5567H19.714V19.0733H6.56646V5.92667ZM37.7473 1.8125C35.6335 1.8125 33.5671 2.43932 31.8096 3.61367C30.0521 4.78803 28.6822 6.45719 27.8733 8.41008C27.0644 10.363 26.8528 12.5118 27.2651 14.585C27.6776 16.6582 28.6954 18.5625 30.1901 20.0572C31.6847 21.5519 33.5891 22.5697 35.6622 22.9822C37.7355 23.3945 39.8843 23.1829 41.8372 22.374C43.7901 21.5651 45.4592 20.1952 46.6336 18.4377C47.808 16.6801 48.4348 14.6137 48.4348 12.5C48.4315 9.6665 47.3044 6.95003 45.3008 4.94646C43.2972 2.94288 40.5808 1.81581 37.7473 1.8125ZM37.7473 19.0733C36.4472 19.0733 35.1763 18.6878 34.0953 17.9655C33.0144 17.2432 32.1718 16.2167 31.6743 15.0155C31.1768 13.8144 31.0466 12.4927 31.3002 11.2176C31.5539 9.9425 32.18 8.77125 33.0992 7.85195C34.0186 6.93266 35.1898 6.30661 36.4649 6.05298C37.74 5.79934 39.0616 5.92952 40.2628 6.42703C41.4639 6.92455 42.4906 7.76707 43.2128 8.84808C43.9351 9.929 44.3206 11.1999 44.3206 12.5C44.318 14.2426 43.6246 15.913 42.3924 17.1452C41.1602 18.3773 39.4898 19.0707 37.7473 19.0733ZM86.6798 1.8125C84.5656 1.81234 82.4996 2.43901 80.7419 3.61327C78.9842 4.78752 77.6143 6.45662 76.8052 8.4095C75.9962 10.3623 75.7844 12.5113 76.1967 14.5845C76.609 16.6577 77.6268 18.5622 79.1215 20.0569C80.6161 21.5517 82.5204 22.5697 84.594 22.9821C86.6665 23.3945 88.8156 23.1829 90.769 22.3741C92.7215 21.5652 94.3906 20.1953 95.5648 18.4377C96.7398 16.6802 97.3665 14.6138 97.3665 12.5C97.3631 9.66667 96.2365 6.9503 94.2331 4.94675C92.2298 2.94319 89.5131 1.81603 86.6798 1.8125ZM86.6798 19.0733C85.3798 19.0735 84.109 18.6881 83.0276 17.9659C81.9466 17.2437 81.1039 16.2172 80.6062 15.0161C80.1086 13.815 79.9783 12.4932 80.2318 11.2181C80.4854 9.943 81.1114 8.77167 82.0306 7.85225C82.9499 6.93287 84.1215 6.30673 85.3965 6.05303C86.6715 5.79933 87.9931 5.92946 89.194 6.42696C90.3956 6.92445 91.4223 7.76697 92.1448 8.848C92.8665 9.929 93.2523 11.1999 93.2523 12.5C93.2498 14.2424 92.5565 15.9127 91.324 17.1448C90.0923 18.377 88.4223 19.0705 86.6798 19.0733ZM62.2131 1.8125C60.0993 1.8125 58.033 2.43932 56.2755 3.61367C54.5179 4.78803 53.1481 6.45719 52.3391 8.41008C51.5302 10.363 51.3186 12.5118 51.731 14.585C52.1434 16.6582 53.1612 18.5625 54.6559 20.0572C56.1506 21.5519 58.0549 22.5697 60.1281 22.9822C62.2012 23.3945 64.3501 23.1829 66.3031 22.374C68.256 21.5651 69.9251 20.1952 71.0995 18.4377C72.2738 16.6801 72.9006 14.6137 72.9006 12.5C72.8973 9.6665 71.7702 6.95003 69.7666 4.94646C67.7631 2.94288 65.0466 1.81581 62.2131 1.8125ZM62.2131 19.0733C61.0018 19.0739 59.814 18.7398 58.7806 18.1079C57.7472 17.476 56.9085 16.5709 56.3571 15.4924C55.8057 14.4139 55.563 13.204 55.6558 11.9963C55.7486 10.7886 56.1733 9.63 56.8831 8.64842C57.5928 7.66688 58.56 6.90051 59.6777 6.43393C60.7956 5.96733 62.0206 5.81868 63.2175 6.00437C64.4145 6.19006 65.5368 6.70286 66.4607 7.48618C67.3846 8.2695 68.0741 9.29292 68.4531 10.4433H62.2131V14.5567H68.4531C68.0191 15.8694 67.1827 17.0123 66.0626 17.8229C64.9426 18.6337 63.5958 19.0711 62.2131 19.0733Z" fill="#0A0C00"/>
</svg>
