<svg width="124" height="32" viewBox="0 0 124 32" fill="none" xmlns="http://www.w3.org/2000/svg">
<path d="M22.9806 13.5C25.3678 13.5 25.9049 14.5385 25.9049 15.8337C25.9049 17.2067 25.2552 18.1903 22.9905 18.1903C20.7403 18.1903 20.0898 17.2638 20.0898 15.8337C20.0898 14.4265 20.7988 13.5 22.9806 13.5Z" fill="#0A0C00"/>
<path d="M47.9299 13.5C50.3171 13.5 50.8541 14.5385 50.8541 15.8337C50.8541 17.2067 50.2037 18.1903 47.9397 18.1903C45.6903 18.1903 45.0391 17.2638 45.0391 15.8337C45.0391 14.4265 45.7481 13.5 47.9299 13.5Z" fill="#0A0C00"/>
<path fill-rule="evenodd" clip-rule="evenodd" d="M1.84375 29.3331V2.32129H122.48V29.3331H1.84375ZM59.3387 27.8093H120.958V3.8451H59.3387V27.8093ZM22.9909 20.4897C27.2289 20.4897 29.0106 18.6588 29.0106 15.7994C29.0106 12.8935 27.0038 11.1662 22.9909 11.1662C19.0396 11.1662 16.9598 13.0421 16.9598 15.7994C16.9598 18.911 19.1416 20.4897 22.9909 20.4897ZM8.25618 11.372V20.3525H16.8099V17.9609H11.3509V11.372H8.25618ZM38.5837 20.3525L38.5038 19.4824C37.4685 20.2224 36.2084 20.5785 34.9398 20.4897C33.0326 20.4897 31.4442 19.9175 30.5534 18.7624C29.9658 17.9192 29.6691 16.9069 29.7082 15.8794C29.6748 14.8734 29.9817 13.8857 30.5792 13.0763C31.4807 11.9556 33.1148 11.212 35.5476 11.212C38.3463 11.212 39.991 12.0699 40.6985 13.5114C40.8504 13.8509 40.9396 14.2151 40.9617 14.5864H38.001C37.9263 14.3608 37.7875 14.1619 37.6016 14.0142C37.0118 13.6226 36.3075 13.4415 35.6024 13.5C35.1887 13.4497 34.7691 13.488 34.3714 13.6123C33.9737 13.7365 33.6068 13.9439 33.295 14.2207C32.941 14.7061 32.7748 15.3035 32.8272 15.9022C32.7861 16.4734 32.9389 17.0418 33.2608 17.5152C33.5754 17.8088 33.9494 18.0311 34.3573 18.1673C34.7652 18.3035 35.1976 18.3503 35.6252 18.3045C36.4744 18.3737 37.3175 18.1114 37.9781 17.5723C38.12 17.3947 38.2178 17.1857 38.2634 16.9628H35.0774V15.0329H41.0393V20.3525H38.5837ZM47.9385 20.4897C52.1758 20.4897 53.9582 18.6588 53.9582 15.7994C53.9582 12.8935 51.9482 11.1662 47.9385 11.1662C43.9872 11.1662 41.9073 13.0421 41.9073 15.7994C41.9073 18.911 44.0891 20.4897 47.9385 20.4897Z" fill="#0A0C00"/>
<path d="M64.5547 20.3185V11.3379H66.7608V20.3185H64.5547Z" fill="#0A0C00"/>
<path d="M78.0878 16.5664C77.5287 17.2986 76.5663 17.6331 75.2099 17.6415C74.9239 17.6415 71.1316 17.6301 71.1316 17.6301V20.3188H68.9727V11.3382H75.2107C75.7106 11.2853 76.2164 11.3384 76.6941 11.4941C77.1726 11.6498 77.6123 11.9046 77.9859 12.2419C78.4788 12.8851 78.7184 13.687 78.6599 14.4956C78.7101 15.231 78.5085 15.9616 78.0878 16.5664ZM76.3176 13.6384C76.0893 13.2956 75.5971 13.1051 74.7641 13.1051H71.1202V15.8388H74.7406C75.6314 15.8388 76.1008 15.656 76.3176 15.3009C76.4461 15.0508 76.5017 14.7691 76.4773 14.4887C76.4963 14.1963 76.4416 13.9038 76.3176 13.6384Z" fill="#0A0C00"/>
<path d="M85.0224 20.4555C80.9555 20.4555 79.7109 18.9317 79.7109 17.4239H82.0183C82.0183 18.1675 83.0346 18.7283 85.1251 18.7283C87.2034 18.7283 87.7519 18.3618 87.7519 17.7668C87.7519 17.1032 87.3411 16.8974 85.4104 16.6803C85.03 16.646 83.9946 16.5203 83.6059 16.4632C80.8673 16.1538 79.8129 15.3416 79.8129 13.8887C79.8129 12.3557 81.3557 11.2007 84.7021 11.2007C88.3346 11.2007 89.7283 12.6308 89.7283 14.118H87.4461C87.4461 13.363 86.5895 12.9279 84.5675 12.9279C82.4884 12.9279 82.0434 13.2136 82.0434 13.7744C82.0434 14.358 82.4998 14.5409 84.7059 14.8037C85.2088 14.8731 86.3278 14.9988 86.6359 15.0323C88.9668 15.2723 90.0174 16.1188 90.0174 17.6174C90.0136 19.4026 88.4145 20.4555 85.0224 20.4555Z" fill="#0A0C00"/>
<path d="M96.5165 20.4442C93.5359 20.4442 91.5938 19.2655 91.5938 16.787V11.3379H93.7748V16.8175C93.7748 17.9505 94.7006 18.7047 96.6078 18.7047C98.3323 18.7047 99.3609 17.9962 99.3609 16.8175V11.3379H101.52V16.9905C101.52 19.2434 99.7146 20.4442 96.5165 20.4442Z" fill="#0A0C00"/>
<path d="M113.34 20.3185V14.3238L110.541 20.3185H108.417L105.699 14.3238V20.3185H103.645V11.3379H106.427L109.511 18.179L112.664 11.3379H115.402V20.3185H113.34Z" fill="#0A0C00"/>
</svg>
